PathFileType	4	(X/Y/Z)	output.trc
DataRate	CameraRate	NumFrames	NumMarkers	Units	OrigDataRate	OrigDataStartFrame	OrigNumFrames
1.0	1.0	67	3	mm	1.0	563	1125
Frame#	Time	Joint1X	Joint1Y	Joint1Z	Joint2X	Joint2Y	Joint2Z	Joint3X	Joint3Y	Joint3Z
										
563	562.00000	-0.06707	1.53143	1.96184	-0.19959	1.30482	1.87238	-0.25509	1.20300	1.67092
564	563.00000	-0.06762	1.53264	1.96204	-0.20500	1.31015	1.86774	-0.25903	1.22445	1.65846
565	564.00000	-0.06821	1.53497	1.96269	-0.21006	1.31503	1.86768	-0.26011	1.24609	1.65199
566	565.00000	-0.06890	1.53818	1.96361	-0.21491	1.31992	1.87062	-0.25877	1.26874	1.64983
567	566.00000	-0.06976	1.54178	1.96448	-0.21981	1.32566	1.87383	-0.25605	1.29331	1.64916
568	567.00000	-0.07082	1.54518	1.96497	-0.22507	1.33323	1.87423	-0.25325	1.32046	1.64687
569	568.00000	-0.07206	1.54782	1.96481	-0.23091	1.34349	1.86941	-0.25150	1.35033	1.64057
570	569.00000	-0.07341	1.54944	1.96394	-0.23746	1.35689	1.85849	-0.25143	1.38253	1.62945
571	570.00000	-0.07474	1.55012	1.96251	-0.24463	1.37334	1.84249	-0.25297	1.41625	1.61452
572	571.00000	-0.07592	1.55022	1.96081	-0.25217	1.39225	1.82391	-0.25542	1.45047	1.59822
573	572.00000	-0.07684	1.55023	1.95918	-0.25974	1.41263	1.80584	-0.25781	1.48421	1.58351
574	573.00000	-0.07748	1.55055	1.95787	-0.26695	1.43339	1.79097	-0.25916	1.51668	1.57287
575	574.00000	-0.07785	1.55139	1.95696	-0.27348	1.45354	1.78075	-0.25886	1.54737	1.56763
576	575.00000	-0.07805	1.55270	1.95634	-0.27907	1.47232	1.77527	-0.25672	1.57606	1.56781
577	576.00000	-0.07816	1.55426	1.95580	-0.28362	1.48927	1.77343	-0.25298	1.60273	1.57234
578	577.00000	-0.07825	1.55581	1.95510	-0.28708	1.50428	1.77356	-0.24815	1.62754	1.57970
579	578.00000	-0.07834	1.55711	1.95410	-0.28952	1.51749	1.77402	-0.24282	1.65073	1.58840
580	579.00000	-0.07846	1.55807	1.95277	-0.29102	1.52925	1.77370	-0.23755	1.67258	1.59742
581	580.00000	-0.07860	1.55868	1.95125	-0.29172	1.54006	1.77216	-0.23278	1.69339	1.60625
582	581.00000	-0.07878	1.55902	1.94971	-0.29181	1.55041	1.76962	-0.22878	1.71340	1.61486
583	582.00000	-0.07902	1.55918	1.94830	-0.29150	1.56079	1.76669	-0.22563	1.73276	1.62336
584	583.00000	-0.07938	1.55924	1.94708	-0.29103	1.57150	1.76408	-0.22324	1.75147	1.63185
585	584.00000	-0.07988	1.55923	1.94599	-0.29062	1.58273	1.76236	-0.22136	1.76941	1.64031
586	585.00000	-0.08055	1.55920	1.94487	-0.29042	1.59448	1.76183	-0.21961	1.78637	1.64858
587	586.00000	-0.08139	1.55916	1.94355	-0.29049	1.60660	1.76245	-0.21759	1.80219	1.65651
588	587.00000	-0.08235	1.55917	1.94196	-0.29076	1.61884	1.76396	-0.21499	1.81677	1.66410
589	588.00000	-0.08337	1.55926	1.94012	-0.29103	1.63086	1.76592	-0.21165	1.83015	1.67152
590	589.00000	-0.08437	1.55947	1.93822	-0.29106	1.64228	1.76790	-0.20766	1.84246	1.67911
591	590.00000	-0.08526	1.55982	1.93651	-0.29063	1.65271	1.76954	-0.20334	1.85383	1.68725
592	591.00000	-0.08600	1.56029	1.93522	-0.28965	1.66183	1.77069	-0.19908	1.86433	1.69619
593	592.00000	-0.08653	1.56084	1.93450	-0.28817	1.66950	1.77141	-0.19529	1.87397	1.70601
594	593.00000	-0.08685	1.56143	1.93433	-0.28641	1.67577	1.77194	-0.19221	1.88269	1.71652
595	594.00000	-0.08702	1.56202	1.93455	-0.28467	1.68093	1.77264	-0.18986	1.89040	1.72740
596	595.00000	-0.08711	1.56258	1.93490	-0.28328	1.68541	1.77383	-0.18803	1.89707	1.73829
597	596.00000	-0.08722	1.56309	1.93509	-0.28244	1.68967	1.77571	-0.18635	1.90273	1.74887
598	597.00000	-0.08744	1.56357	1.93488	-0.28221	1.69408	1.77826	-0.18446	1.90748	1.75897
599	598.00000	-0.08785	1.56401	1.93414	-0.28252	1.69883	1.78123	-0.18209	1.91146	1.76852
600	599.00000	-0.08847	1.56440	1.93288	-0.28314	1.70382	1.78424	-0.17921	1.91481	1.77749
601	600.00000	-0.08928	1.56476	1.93125	-0.28386	1.70878	1.78690	-0.17603	1.91762	1.78578
602	601.00000	-0.09018	1.56509	1.92949	-0.28448	1.71332	1.78890	-0.17295	1.91995	1.79323
603	602.00000	-0.09108	1.56539	1.92784	-0.28489	1.71708	1.79013	-0.17039	1.92184	1.79966
604	603.00000	-0.09186	1.56569	1.92653	-0.28508	1.71986	1.79063	-0.16869	1.92335	1.80493
605	604.00000	-0.09248	1.56599	1.92566	-0.28506	1.72167	1.79060	-0.16794	1.92456	1.80897
606	605.00000	-0.09292	1.56629	1.92524	-0.28489	1.72270	1.79024	-0.16802	1.92558	1.81188
607	606.00000	-0.09324	1.56658	1.92516	-0.28462	1.72325	1.78975	-0.16861	1.92651	1.81375
608	607.00000	-0.09349	1.56684	1.92527	-0.28432	1.72357	1.78922	-0.16934	1.92737	1.81465
609	608.00000	-0.09376	1.56700	1.92539	-0.28407	1.72379	1.78868	-0.16996	1.92812	1.81452
610	609.00000	-0.09410	1.56705	1.92538	-0.28400	1.72385	1.78808	-0.17040	1.92860	1.81319
611	610.00000	-0.09456	1.56694	1.92519	-0.28422	1.72358	1.78736	-0.17079	1.92860	1.81040
612	611.00000	-0.09514	1.56667	1.92480	-0.28486	1.72276	1.78649	-0.17146	1.92796	1.80596
613	612.00000	-0.09580	1.56626	1.92429	-0.28599	1.72120	1.78549	-0.17276	1.92658	1.79982
614	613.00000	-0.09651	1.56575	1.92373	-0.28760	1.71884	1.78441	-0.17499	1.92453	1.79215
615	614.00000	-0.09718	1.56517	1.92321	-0.28958	1.71575	1.78330	-0.17822	1.92195	1.78336
616	615.00000	-0.09775	1.56456	1.92282	-0.29172	1.71212	1.78222	-0.18233	1.91903	1.77394
617	616.00000	-0.09815	1.56393	1.92260	-0.29379	1.70812	1.78117	-0.18696	1.91585	1.76435
618	617.00000	-0.09836	1.56327	1.92257	-0.29558	1.70390	1.78007	-0.19170	1.91240	1.75485
619	618.00000	-0.09839	1.56257	1.92274	-0.29693	1.69950	1.77880	-0.19613	1.90849	1.74540
620	619.00000	-0.09829	1.56181	1.92310	-0.29775	1.69484	1.77721	-0.20006	1.90383	1.73567
621	620.00000	-0.09812	1.56102	1.92366	-0.29806	1.68985	1.77514	-0.20347	1.89817	1.72516
622	621.00000	-0.09795	1.56024	1.92440	-0.29793	1.68445	1.77250	-0.20658	1.89136	1.71340
623	622.00000	-0.09785	1.55952	1.92530	-0.29748	1.67861	1.76928	-0.20972	1.88341	1.70014
624	623.00000	-0.09785	1.55890	1.92632	-0.29688	1.67235	1.76557	-0.21324	1.87440	1.68544
625	624.00000	-0.09798	1.55840	1.92740	-0.29629	1.66566	1.76157	-0.21736	1.86441	1.66970
626	625.00000	-0.09820	1.55803	1.92848	-0.29589	1.65848	1.75754	-0.22211	1.85339	1.65354
627	626.00000	-0.09849	1.55776	1.92948	-0.29581	1.65067	1.75372	-0.22731	1.84108	1.63761
628	627.00000	-0.09881	1.55756	1.93033	-0.29613	1.64208	1.75028	-0.23255	1.82710	1.62240
629	628.00000	-0.09911	1.55746	1.93099	-0.29678	1.63259	1.74729	-0.23736	1.81104	1.60813
